<mxfile host="app.diagrams.net" agent="Mozilla/5.0 (Windows NT 10.0; Win64; x64) AppleWebKit/537.36 (KHTML, like Gecko) Chrome/128.0.0.0 Safari/537.36 OPR/114.0.0.0" version="24.8.6">
  <diagram id="R2lEEEUBdFMjLlhIrx00" name="Page-1">
    <mxGraphModel dx="2591" dy="1016" grid="1" gridSize="10" guides="1" tooltips="1" connect="1" arrows="1" fold="1" page="1" pageScale="1" pageWidth="850" pageHeight="1100" math="0" shadow="0" extFonts="Permanent Marker^https://fonts.googleapis.com/css?family=Permanent+Marker">
      <root>
        <mxCell id="0" />
        <mxCell id="1" parent="0" />
        <mxCell id="C-vyLk0tnHw3VtMMgP7b-1" value="" style="edgeStyle=entityRelationEdgeStyle;endArrow=ERzeroToMany;startArrow=ERone;endFill=1;startFill=0;exitX=1;exitY=0.5;exitDx=0;exitDy=0;" parent="1" source="C-vyLk0tnHw3VtMMgP7b-24" target="Oyk-dhyPcfcTaLBgQnEJ-43" edge="1">
          <mxGeometry width="100" height="100" relative="1" as="geometry">
            <mxPoint x="320" y="220" as="sourcePoint" />
            <mxPoint x="450" y="195" as="targetPoint" />
            <Array as="points">
              <mxPoint x="320" y="190" />
              <mxPoint x="370" y="260" />
              <mxPoint x="310" y="230" />
            </Array>
          </mxGeometry>
        </mxCell>
        <mxCell id="Oyk-dhyPcfcTaLBgQnEJ-37" value="" style="group" vertex="1" connectable="0" parent="1">
          <mxGeometry y="20" width="250" height="240" as="geometry" />
        </mxCell>
        <mxCell id="C-vyLk0tnHw3VtMMgP7b-23" value="Eszközök" style="shape=table;startSize=30;container=1;collapsible=1;childLayout=tableLayout;fixedRows=1;rowLines=0;fontStyle=1;align=center;resizeLast=1;labelBackgroundColor=#66A8FF;swimlaneFillColor=none;fillColor=#dae8fc;strokeColor=#6c8ebf;" parent="Oyk-dhyPcfcTaLBgQnEJ-37" vertex="1">
          <mxGeometry width="250" height="240" as="geometry" />
        </mxCell>
        <mxCell id="C-vyLk0tnHw3VtMMgP7b-24" value="" style="shape=partialRectangle;collapsible=0;dropTarget=0;pointerEvents=0;fillColor=none;points=[[0,0.5],[1,0.5]];portConstraint=eastwest;top=0;left=0;right=0;bottom=1;" parent="C-vyLk0tnHw3VtMMgP7b-23" vertex="1">
          <mxGeometry y="30" width="250" height="30" as="geometry" />
        </mxCell>
        <mxCell id="C-vyLk0tnHw3VtMMgP7b-25" value="PK" style="shape=partialRectangle;overflow=hidden;connectable=0;fillColor=none;top=0;left=0;bottom=0;right=0;fontStyle=1;" parent="C-vyLk0tnHw3VtMMgP7b-24" vertex="1">
          <mxGeometry width="50" height="30" as="geometry">
            <mxRectangle width="50" height="30" as="alternateBounds" />
          </mxGeometry>
        </mxCell>
        <mxCell id="C-vyLk0tnHw3VtMMgP7b-26" value="id int NOT NULL" style="shape=partialRectangle;overflow=hidden;connectable=0;fillColor=default;top=0;left=0;bottom=0;right=0;align=center;spacingLeft=6;fontStyle=5;gradientColor=none;" parent="C-vyLk0tnHw3VtMMgP7b-24" vertex="1">
          <mxGeometry x="50" width="200" height="30" as="geometry">
            <mxRectangle width="200" height="30" as="alternateBounds" />
          </mxGeometry>
        </mxCell>
        <mxCell id="C-vyLk0tnHw3VtMMgP7b-27" value="" style="shape=partialRectangle;collapsible=0;dropTarget=0;pointerEvents=0;fillColor=none;points=[[0,0.5],[1,0.5]];portConstraint=eastwest;top=0;left=0;right=0;bottom=0;" parent="C-vyLk0tnHw3VtMMgP7b-23" vertex="1">
          <mxGeometry y="60" width="250" height="30" as="geometry" />
        </mxCell>
        <mxCell id="C-vyLk0tnHw3VtMMgP7b-28" value="" style="shape=partialRectangle;overflow=hidden;connectable=0;fillColor=none;top=0;left=0;bottom=0;right=0;strokeColor=inherit;" parent="C-vyLk0tnHw3VtMMgP7b-27" vertex="1">
          <mxGeometry width="50" height="30" as="geometry">
            <mxRectangle width="50" height="30" as="alternateBounds" />
          </mxGeometry>
        </mxCell>
        <mxCell id="C-vyLk0tnHw3VtMMgP7b-29" value="" style="shape=partialRectangle;overflow=hidden;connectable=0;fillColor=none;top=0;left=0;bottom=0;right=0;align=left;spacingLeft=6;shadow=0;perimeterSpacing=1;strokeColor=default;strokeWidth=16;" parent="C-vyLk0tnHw3VtMMgP7b-27" vertex="1">
          <mxGeometry x="50" width="200" height="30" as="geometry">
            <mxRectangle width="200" height="30" as="alternateBounds" />
          </mxGeometry>
        </mxCell>
        <mxCell id="Oyk-dhyPcfcTaLBgQnEJ-14" value="&lt;b&gt;nev&lt;/b&gt; varchar NOT NULL" style="whiteSpace=wrap;html=1;textShadow=0;labelBorderColor=none;labelBackgroundColor=none;gradientColor=none;fillStyle=hatch;fillColor=none;" vertex="1" parent="Oyk-dhyPcfcTaLBgQnEJ-37">
          <mxGeometry x="50" y="60" width="200" height="30" as="geometry" />
        </mxCell>
        <mxCell id="Oyk-dhyPcfcTaLBgQnEJ-25" value="&lt;b&gt;marka&lt;/b&gt; varchar NOT NULL" style="whiteSpace=wrap;html=1;textShadow=0;labelBorderColor=none;labelBackgroundColor=none;gradientColor=none;fillStyle=hatch;fillColor=none;" vertex="1" parent="Oyk-dhyPcfcTaLBgQnEJ-37">
          <mxGeometry x="50" y="90" width="200" height="30" as="geometry" />
        </mxCell>
        <mxCell id="Oyk-dhyPcfcTaLBgQnEJ-26" value="&lt;b&gt;megjelenes&lt;/b&gt; date NOT NULL" style="whiteSpace=wrap;html=1;textShadow=0;labelBorderColor=none;labelBackgroundColor=none;gradientColor=none;fillStyle=hatch;fillColor=none;" vertex="1" parent="Oyk-dhyPcfcTaLBgQnEJ-37">
          <mxGeometry x="50" y="120" width="200" height="30" as="geometry" />
        </mxCell>
        <mxCell id="Oyk-dhyPcfcTaLBgQnEJ-27" value="&lt;b&gt;kep_url &lt;/b&gt;varchar" style="whiteSpace=wrap;html=1;textShadow=0;labelBorderColor=none;labelBackgroundColor=none;gradientColor=none;fillStyle=hatch;fillColor=none;" vertex="1" parent="Oyk-dhyPcfcTaLBgQnEJ-37">
          <mxGeometry x="50" y="150" width="200" height="30" as="geometry" />
        </mxCell>
        <mxCell id="Oyk-dhyPcfcTaLBgQnEJ-28" value="&lt;b&gt;ar &lt;/b&gt;decimal(10,2)" style="whiteSpace=wrap;html=1;textShadow=0;labelBorderColor=none;labelBackgroundColor=none;gradientColor=none;fillStyle=hatch;fillColor=none;" vertex="1" parent="Oyk-dhyPcfcTaLBgQnEJ-37">
          <mxGeometry x="50" y="180" width="200" height="30" as="geometry" />
        </mxCell>
        <mxCell id="Oyk-dhyPcfcTaLBgQnEJ-29" value="&lt;b&gt;leiras &lt;/b&gt;varchar" style="whiteSpace=wrap;html=1;textShadow=0;labelBorderColor=none;labelBackgroundColor=none;gradientColor=none;fillStyle=hatch;fillColor=none;" vertex="1" parent="Oyk-dhyPcfcTaLBgQnEJ-37">
          <mxGeometry x="50" y="210" width="200" height="30" as="geometry" />
        </mxCell>
        <mxCell id="Oyk-dhyPcfcTaLBgQnEJ-38" value="" style="group" vertex="1" connectable="0" parent="1">
          <mxGeometry x="470" width="250" height="240" as="geometry" />
        </mxCell>
        <mxCell id="Oyk-dhyPcfcTaLBgQnEJ-39" value="&quot;Belső&quot; specifikációk" style="shape=table;startSize=30;container=1;collapsible=1;childLayout=tableLayout;fixedRows=1;rowLines=0;fontStyle=1;align=center;resizeLast=1;labelBackgroundColor=#66A8FF;swimlaneFillColor=none;fillColor=#dae8fc;strokeColor=#6c8ebf;" vertex="1" parent="Oyk-dhyPcfcTaLBgQnEJ-38">
          <mxGeometry width="250" height="240" as="geometry" />
        </mxCell>
        <mxCell id="Oyk-dhyPcfcTaLBgQnEJ-40" value="" style="shape=partialRectangle;collapsible=0;dropTarget=0;pointerEvents=0;fillColor=none;points=[[0,0.5],[1,0.5]];portConstraint=eastwest;top=0;left=0;right=0;bottom=1;" vertex="1" parent="Oyk-dhyPcfcTaLBgQnEJ-39">
          <mxGeometry y="30" width="250" height="30" as="geometry" />
        </mxCell>
        <mxCell id="Oyk-dhyPcfcTaLBgQnEJ-41" value="PK" style="shape=partialRectangle;overflow=hidden;connectable=0;fillColor=none;top=0;left=0;bottom=0;right=0;fontStyle=1;" vertex="1" parent="Oyk-dhyPcfcTaLBgQnEJ-40">
          <mxGeometry width="50" height="30" as="geometry">
            <mxRectangle width="50" height="30" as="alternateBounds" />
          </mxGeometry>
        </mxCell>
        <mxCell id="Oyk-dhyPcfcTaLBgQnEJ-42" value="id int NOT NULL" style="shape=partialRectangle;overflow=hidden;connectable=0;fillColor=default;top=0;left=0;bottom=0;right=0;align=center;spacingLeft=6;fontStyle=5;gradientColor=none;" vertex="1" parent="Oyk-dhyPcfcTaLBgQnEJ-40">
          <mxGeometry x="50" width="200" height="30" as="geometry">
            <mxRectangle width="200" height="30" as="alternateBounds" />
          </mxGeometry>
        </mxCell>
        <mxCell id="Oyk-dhyPcfcTaLBgQnEJ-43" value="" style="shape=partialRectangle;collapsible=0;dropTarget=0;pointerEvents=0;fillColor=none;points=[[0,0.5],[1,0.5]];portConstraint=eastwest;top=0;left=0;right=0;bottom=0;" vertex="1" parent="Oyk-dhyPcfcTaLBgQnEJ-39">
          <mxGeometry y="60" width="250" height="30" as="geometry" />
        </mxCell>
        <mxCell id="Oyk-dhyPcfcTaLBgQnEJ-44" value="FK" style="shape=partialRectangle;overflow=hidden;connectable=0;fillColor=none;top=0;left=0;bottom=0;right=0;strokeColor=inherit;" vertex="1" parent="Oyk-dhyPcfcTaLBgQnEJ-43">
          <mxGeometry width="50" height="30" as="geometry">
            <mxRectangle width="50" height="30" as="alternateBounds" />
          </mxGeometry>
        </mxCell>
        <mxCell id="Oyk-dhyPcfcTaLBgQnEJ-45" value="" style="shape=partialRectangle;overflow=hidden;connectable=0;fillColor=none;top=0;left=0;bottom=0;right=0;align=left;spacingLeft=6;shadow=0;perimeterSpacing=1;strokeColor=default;strokeWidth=16;" vertex="1" parent="Oyk-dhyPcfcTaLBgQnEJ-43">
          <mxGeometry x="50" width="200" height="30" as="geometry">
            <mxRectangle width="200" height="30" as="alternateBounds" />
          </mxGeometry>
        </mxCell>
        <mxCell id="Oyk-dhyPcfcTaLBgQnEJ-46" value="&lt;b&gt;eszkoz_id &lt;/b&gt;int NOT NULL" style="whiteSpace=wrap;html=1;textShadow=0;labelBorderColor=none;labelBackgroundColor=none;gradientColor=none;fillStyle=hatch;fillColor=none;" vertex="1" parent="Oyk-dhyPcfcTaLBgQnEJ-38">
          <mxGeometry x="50" y="60" width="200" height="30" as="geometry" />
        </mxCell>
        <mxCell id="Oyk-dhyPcfcTaLBgQnEJ-47" value="&lt;b&gt;cpu&amp;amp;gpu_pont &lt;/b&gt;int NOT NULL" style="whiteSpace=wrap;html=1;textShadow=0;labelBorderColor=none;labelBackgroundColor=none;gradientColor=none;fillStyle=hatch;fillColor=none;" vertex="1" parent="Oyk-dhyPcfcTaLBgQnEJ-38">
          <mxGeometry x="50" y="90" width="200" height="30" as="geometry" />
        </mxCell>
        <mxCell id="Oyk-dhyPcfcTaLBgQnEJ-49" value="&lt;b&gt;cpu&amp;amp;gpu_nev &lt;/b&gt;varchar NOT NULL" style="whiteSpace=wrap;html=1;textShadow=0;labelBorderColor=none;labelBackgroundColor=none;gradientColor=none;fillStyle=hatch;fillColor=none;" vertex="1" parent="Oyk-dhyPcfcTaLBgQnEJ-38">
          <mxGeometry x="50" y="120" width="200" height="30" as="geometry" />
        </mxCell>
        <mxCell id="Oyk-dhyPcfcTaLBgQnEJ-50" value="&lt;b&gt;magok_szama &lt;/b&gt;int NOT NULL" style="whiteSpace=wrap;html=1;textShadow=0;labelBorderColor=none;labelBackgroundColor=none;gradientColor=none;fillStyle=hatch;fillColor=none;" vertex="1" parent="Oyk-dhyPcfcTaLBgQnEJ-38">
          <mxGeometry x="50" y="180" width="200" height="30" as="geometry" />
        </mxCell>
        <mxCell id="Oyk-dhyPcfcTaLBgQnEJ-51" value="&lt;b&gt;tarolokapacitas &lt;/b&gt;int NOT NULL" style="whiteSpace=wrap;html=1;textShadow=0;labelBorderColor=none;labelBackgroundColor=none;gradientColor=none;fillStyle=hatch;fillColor=none;" vertex="1" parent="Oyk-dhyPcfcTaLBgQnEJ-38">
          <mxGeometry x="50" y="210" width="200" height="30" as="geometry" />
        </mxCell>
        <mxCell id="Oyk-dhyPcfcTaLBgQnEJ-48" value="&lt;b&gt;memoria &lt;/b&gt;int NOT NULL" style="whiteSpace=wrap;html=1;textShadow=0;labelBorderColor=none;labelBackgroundColor=none;gradientColor=none;fillStyle=hatch;fillColor=none;" vertex="1" parent="Oyk-dhyPcfcTaLBgQnEJ-38">
          <mxGeometry x="50" y="150" width="200" height="30" as="geometry" />
        </mxCell>
        <mxCell id="Oyk-dhyPcfcTaLBgQnEJ-66" value="" style="group" vertex="1" connectable="0" parent="1">
          <mxGeometry x="470" y="260" width="250" height="530" as="geometry" />
        </mxCell>
        <mxCell id="Oyk-dhyPcfcTaLBgQnEJ-53" value="Kijelző specifikációk" style="shape=table;startSize=30;container=1;collapsible=1;childLayout=tableLayout;fixedRows=1;rowLines=0;fontStyle=1;align=center;resizeLast=1;labelBackgroundColor=#66A8FF;swimlaneFillColor=none;fillColor=#dae8fc;strokeColor=#6c8ebf;" vertex="1" parent="Oyk-dhyPcfcTaLBgQnEJ-66">
          <mxGeometry width="250" height="270" as="geometry" />
        </mxCell>
        <mxCell id="Oyk-dhyPcfcTaLBgQnEJ-54" value="" style="shape=partialRectangle;collapsible=0;dropTarget=0;pointerEvents=0;fillColor=none;points=[[0,0.5],[1,0.5]];portConstraint=eastwest;top=0;left=0;right=0;bottom=1;" vertex="1" parent="Oyk-dhyPcfcTaLBgQnEJ-53">
          <mxGeometry y="30" width="250" height="30" as="geometry" />
        </mxCell>
        <mxCell id="Oyk-dhyPcfcTaLBgQnEJ-55" value="PK" style="shape=partialRectangle;overflow=hidden;connectable=0;fillColor=none;top=0;left=0;bottom=0;right=0;fontStyle=1;" vertex="1" parent="Oyk-dhyPcfcTaLBgQnEJ-54">
          <mxGeometry width="50" height="30" as="geometry">
            <mxRectangle width="50" height="30" as="alternateBounds" />
          </mxGeometry>
        </mxCell>
        <mxCell id="Oyk-dhyPcfcTaLBgQnEJ-56" value="id int NOT NULL" style="shape=partialRectangle;overflow=hidden;connectable=0;fillColor=default;top=0;left=0;bottom=0;right=0;align=center;spacingLeft=6;fontStyle=5;gradientColor=none;" vertex="1" parent="Oyk-dhyPcfcTaLBgQnEJ-54">
          <mxGeometry x="50" width="200" height="30" as="geometry">
            <mxRectangle width="200" height="30" as="alternateBounds" />
          </mxGeometry>
        </mxCell>
        <mxCell id="Oyk-dhyPcfcTaLBgQnEJ-57" value="" style="shape=partialRectangle;collapsible=0;dropTarget=0;pointerEvents=0;fillColor=none;points=[[0,0.5],[1,0.5]];portConstraint=eastwest;top=0;left=0;right=0;bottom=0;" vertex="1" parent="Oyk-dhyPcfcTaLBgQnEJ-53">
          <mxGeometry y="60" width="250" height="30" as="geometry" />
        </mxCell>
        <mxCell id="Oyk-dhyPcfcTaLBgQnEJ-58" value="FK" style="shape=partialRectangle;overflow=hidden;connectable=0;fillColor=none;top=0;left=0;bottom=0;right=0;strokeColor=inherit;" vertex="1" parent="Oyk-dhyPcfcTaLBgQnEJ-57">
          <mxGeometry width="50" height="30" as="geometry">
            <mxRectangle width="50" height="30" as="alternateBounds" />
          </mxGeometry>
        </mxCell>
        <mxCell id="Oyk-dhyPcfcTaLBgQnEJ-59" value="" style="shape=partialRectangle;overflow=hidden;connectable=0;fillColor=none;top=0;left=0;bottom=0;right=0;align=left;spacingLeft=6;shadow=0;perimeterSpacing=1;strokeColor=default;strokeWidth=16;" vertex="1" parent="Oyk-dhyPcfcTaLBgQnEJ-57">
          <mxGeometry x="50" width="200" height="30" as="geometry">
            <mxRectangle width="200" height="30" as="alternateBounds" />
          </mxGeometry>
        </mxCell>
        <mxCell id="Oyk-dhyPcfcTaLBgQnEJ-60" value="&lt;b&gt;kijelzo_meret &lt;/b&gt;decimal(10,2) N.N" style="whiteSpace=wrap;html=1;textShadow=0;labelBorderColor=none;labelBackgroundColor=none;gradientColor=none;fillStyle=hatch;fillColor=none;" vertex="1" parent="Oyk-dhyPcfcTaLBgQnEJ-66">
          <mxGeometry x="50" y="90" width="200" height="30" as="geometry" />
        </mxCell>
        <mxCell id="Oyk-dhyPcfcTaLBgQnEJ-61" value="&lt;b&gt;felbontas_w&amp;nbsp;&lt;/b&gt;int NOT NULL" style="whiteSpace=wrap;html=1;textShadow=0;labelBorderColor=none;labelBackgroundColor=none;gradientColor=none;fillStyle=hatch;fillColor=none;" vertex="1" parent="Oyk-dhyPcfcTaLBgQnEJ-66">
          <mxGeometry x="50" y="120" width="200" height="30" as="geometry" />
        </mxCell>
        <mxCell id="Oyk-dhyPcfcTaLBgQnEJ-62" value="&lt;b&gt;felbontas_h int&lt;/b&gt;&amp;nbsp;NOT NULL" style="whiteSpace=wrap;html=1;textShadow=0;labelBorderColor=none;labelBackgroundColor=none;gradientColor=none;fillStyle=hatch;fillColor=none;" vertex="1" parent="Oyk-dhyPcfcTaLBgQnEJ-66">
          <mxGeometry x="50" y="150" width="200" height="30" as="geometry" />
        </mxCell>
        <mxCell id="Oyk-dhyPcfcTaLBgQnEJ-63" value="&lt;b&gt;panel_tipusa &lt;/b&gt;varchar NOT NULL" style="whiteSpace=wrap;html=1;textShadow=0;labelBorderColor=none;labelBackgroundColor=none;gradientColor=none;fillStyle=hatch;fillColor=none;" vertex="1" parent="Oyk-dhyPcfcTaLBgQnEJ-66">
          <mxGeometry x="50" y="210" width="200" height="30" as="geometry" />
        </mxCell>
        <mxCell id="Oyk-dhyPcfcTaLBgQnEJ-64" value="&lt;b&gt;vedouveg &lt;/b&gt;varchar" style="whiteSpace=wrap;html=1;textShadow=0;labelBorderColor=none;labelBackgroundColor=none;gradientColor=none;fillStyle=hatch;fillColor=none;" vertex="1" parent="Oyk-dhyPcfcTaLBgQnEJ-66">
          <mxGeometry x="50" y="240" width="200" height="30" as="geometry" />
        </mxCell>
        <mxCell id="Oyk-dhyPcfcTaLBgQnEJ-65" value="&lt;b&gt;kepfrissites&amp;nbsp;&lt;/b&gt;int NOT NULL" style="whiteSpace=wrap;html=1;textShadow=0;labelBorderColor=none;labelBackgroundColor=none;gradientColor=none;fillStyle=hatch;fillColor=none;" vertex="1" parent="Oyk-dhyPcfcTaLBgQnEJ-66">
          <mxGeometry x="50" y="180" width="200" height="30" as="geometry" />
        </mxCell>
        <mxCell id="Oyk-dhyPcfcTaLBgQnEJ-82" value="&lt;b&gt;eszkoz_id&amp;nbsp;&lt;/b&gt;int NOT NULL" style="whiteSpace=wrap;html=1;textShadow=0;labelBorderColor=none;labelBackgroundColor=none;gradientColor=none;fillStyle=hatch;fillColor=none;" vertex="1" parent="Oyk-dhyPcfcTaLBgQnEJ-66">
          <mxGeometry x="50" y="60" width="200" height="30" as="geometry" />
        </mxCell>
        <mxCell id="Oyk-dhyPcfcTaLBgQnEJ-68" value="" style="group" vertex="1" connectable="0" parent="Oyk-dhyPcfcTaLBgQnEJ-66">
          <mxGeometry y="290" width="250" height="240" as="geometry" />
        </mxCell>
        <mxCell id="Oyk-dhyPcfcTaLBgQnEJ-69" value="Kamera specifikációk" style="shape=table;startSize=30;container=1;collapsible=1;childLayout=tableLayout;fixedRows=1;rowLines=0;fontStyle=1;align=center;resizeLast=1;labelBackgroundColor=#66A8FF;swimlaneFillColor=none;fillColor=#dae8fc;strokeColor=#6c8ebf;" vertex="1" parent="Oyk-dhyPcfcTaLBgQnEJ-68">
          <mxGeometry width="250" height="240" as="geometry" />
        </mxCell>
        <mxCell id="Oyk-dhyPcfcTaLBgQnEJ-70" value="" style="shape=partialRectangle;collapsible=0;dropTarget=0;pointerEvents=0;fillColor=none;points=[[0,0.5],[1,0.5]];portConstraint=eastwest;top=0;left=0;right=0;bottom=1;" vertex="1" parent="Oyk-dhyPcfcTaLBgQnEJ-69">
          <mxGeometry y="30" width="250" height="30" as="geometry" />
        </mxCell>
        <mxCell id="Oyk-dhyPcfcTaLBgQnEJ-71" value="PK" style="shape=partialRectangle;overflow=hidden;connectable=0;fillColor=none;top=0;left=0;bottom=0;right=0;fontStyle=1;" vertex="1" parent="Oyk-dhyPcfcTaLBgQnEJ-70">
          <mxGeometry width="50" height="30" as="geometry">
            <mxRectangle width="50" height="30" as="alternateBounds" />
          </mxGeometry>
        </mxCell>
        <mxCell id="Oyk-dhyPcfcTaLBgQnEJ-72" value="id int NOT NULL" style="shape=partialRectangle;overflow=hidden;connectable=0;fillColor=default;top=0;left=0;bottom=0;right=0;align=center;spacingLeft=6;fontStyle=5;gradientColor=none;" vertex="1" parent="Oyk-dhyPcfcTaLBgQnEJ-70">
          <mxGeometry x="50" width="200" height="30" as="geometry">
            <mxRectangle width="200" height="30" as="alternateBounds" />
          </mxGeometry>
        </mxCell>
        <mxCell id="Oyk-dhyPcfcTaLBgQnEJ-73" value="" style="shape=partialRectangle;collapsible=0;dropTarget=0;pointerEvents=0;fillColor=none;points=[[0,0.5],[1,0.5]];portConstraint=eastwest;top=0;left=0;right=0;bottom=0;" vertex="1" parent="Oyk-dhyPcfcTaLBgQnEJ-69">
          <mxGeometry y="60" width="250" height="30" as="geometry" />
        </mxCell>
        <mxCell id="Oyk-dhyPcfcTaLBgQnEJ-74" value="FK" style="shape=partialRectangle;overflow=hidden;connectable=0;fillColor=none;top=0;left=0;bottom=0;right=0;strokeColor=inherit;" vertex="1" parent="Oyk-dhyPcfcTaLBgQnEJ-73">
          <mxGeometry width="50" height="30" as="geometry">
            <mxRectangle width="50" height="30" as="alternateBounds" />
          </mxGeometry>
        </mxCell>
        <mxCell id="Oyk-dhyPcfcTaLBgQnEJ-75" value="" style="shape=partialRectangle;overflow=hidden;connectable=0;fillColor=none;top=0;left=0;bottom=0;right=0;align=left;spacingLeft=6;shadow=0;perimeterSpacing=1;strokeColor=default;strokeWidth=16;" vertex="1" parent="Oyk-dhyPcfcTaLBgQnEJ-73">
          <mxGeometry x="50" width="200" height="30" as="geometry">
            <mxRectangle width="200" height="30" as="alternateBounds" />
          </mxGeometry>
        </mxCell>
        <mxCell id="Oyk-dhyPcfcTaLBgQnEJ-76" value="&lt;b&gt;eszkoz_id&amp;nbsp;&lt;/b&gt;int NOT NULL" style="whiteSpace=wrap;html=1;textShadow=0;labelBorderColor=none;labelBackgroundColor=none;gradientColor=none;fillStyle=hatch;fillColor=none;" vertex="1" parent="Oyk-dhyPcfcTaLBgQnEJ-68">
          <mxGeometry x="50" y="60" width="200" height="30" as="geometry" />
        </mxCell>
        <mxCell id="Oyk-dhyPcfcTaLBgQnEJ-77" value="&lt;b&gt;fo_kamera &lt;/b&gt;int NOT NULL" style="whiteSpace=wrap;html=1;textShadow=0;labelBorderColor=none;labelBackgroundColor=none;gradientColor=none;fillStyle=hatch;fillColor=none;" vertex="1" parent="Oyk-dhyPcfcTaLBgQnEJ-68">
          <mxGeometry x="50" y="90" width="200" height="30" as="geometry" />
        </mxCell>
        <mxCell id="Oyk-dhyPcfcTaLBgQnEJ-78" value="&lt;b&gt;szelfi_kamera &lt;/b&gt;int NOT NULL" style="whiteSpace=wrap;html=1;textShadow=0;labelBorderColor=none;labelBackgroundColor=none;gradientColor=none;fillStyle=hatch;fillColor=none;" vertex="1" parent="Oyk-dhyPcfcTaLBgQnEJ-68">
          <mxGeometry x="50" y="120" width="200" height="30" as="geometry" />
        </mxCell>
        <mxCell id="Oyk-dhyPcfcTaLBgQnEJ-79" value="&lt;b&gt;video_fps &lt;/b&gt;int NOT NULL" style="whiteSpace=wrap;html=1;textShadow=0;labelBorderColor=none;labelBackgroundColor=none;gradientColor=none;fillStyle=hatch;fillColor=none;" vertex="1" parent="Oyk-dhyPcfcTaLBgQnEJ-68">
          <mxGeometry x="50" y="180" width="200" height="30" as="geometry" />
        </mxCell>
        <mxCell id="Oyk-dhyPcfcTaLBgQnEJ-80" value="&lt;b&gt;ai_tamogatas &lt;/b&gt;boolean NOT NULL" style="whiteSpace=wrap;html=1;textShadow=0;labelBorderColor=none;labelBackgroundColor=none;gradientColor=none;fillStyle=hatch;fillColor=none;" vertex="1" parent="Oyk-dhyPcfcTaLBgQnEJ-68">
          <mxGeometry x="50" y="210" width="200" height="30" as="geometry" />
        </mxCell>
        <mxCell id="Oyk-dhyPcfcTaLBgQnEJ-81" value="&lt;b&gt;video_felvetel &lt;/b&gt;int NOT NULL" style="whiteSpace=wrap;html=1;textShadow=0;labelBorderColor=none;labelBackgroundColor=none;gradientColor=none;fillStyle=hatch;fillColor=none;" vertex="1" parent="Oyk-dhyPcfcTaLBgQnEJ-68">
          <mxGeometry x="50" y="150" width="200" height="30" as="geometry" />
        </mxCell>
        <mxCell id="Oyk-dhyPcfcTaLBgQnEJ-67" value="" style="edgeStyle=entityRelationEdgeStyle;endArrow=ERzeroToMany;startArrow=ERone;endFill=1;startFill=0;exitX=1;exitY=0.5;exitDx=0;exitDy=0;entryX=0;entryY=0.5;entryDx=0;entryDy=0;" edge="1" parent="1" source="C-vyLk0tnHw3VtMMgP7b-24" target="Oyk-dhyPcfcTaLBgQnEJ-57">
          <mxGeometry width="100" height="100" relative="1" as="geometry">
            <mxPoint x="290" y="440" as="sourcePoint" />
            <mxPoint x="460" y="520" as="targetPoint" />
            <Array as="points">
              <mxPoint x="320" y="465" />
              <mxPoint x="370" y="535" />
              <mxPoint x="310" y="505" />
            </Array>
          </mxGeometry>
        </mxCell>
        <mxCell id="Oyk-dhyPcfcTaLBgQnEJ-83" value="" style="edgeStyle=entityRelationEdgeStyle;endArrow=ERzeroToMany;startArrow=ERone;endFill=1;startFill=0;entryX=0;entryY=0.5;entryDx=0;entryDy=0;exitX=1;exitY=0.5;exitDx=0;exitDy=0;" edge="1" parent="1" source="C-vyLk0tnHw3VtMMgP7b-24">
          <mxGeometry width="100" height="100" relative="1" as="geometry">
            <mxPoint x="250" y="50" as="sourcePoint" />
            <mxPoint x="470" y="630" as="targetPoint" />
            <Array as="points">
              <mxPoint x="320" y="750" />
              <mxPoint x="370" y="820" />
              <mxPoint x="310" y="790" />
            </Array>
          </mxGeometry>
        </mxCell>
        <mxCell id="Oyk-dhyPcfcTaLBgQnEJ-85" value="" style="group" vertex="1" connectable="0" parent="1">
          <mxGeometry x="470" y="810" width="250" height="240" as="geometry" />
        </mxCell>
        <mxCell id="Oyk-dhyPcfcTaLBgQnEJ-86" value="Akkumulátor specifikációk" style="shape=table;startSize=30;container=1;collapsible=1;childLayout=tableLayout;fixedRows=1;rowLines=0;fontStyle=1;align=center;resizeLast=1;labelBackgroundColor=#66A8FF;swimlaneFillColor=none;fillColor=#dae8fc;strokeColor=#6c8ebf;" vertex="1" parent="Oyk-dhyPcfcTaLBgQnEJ-85">
          <mxGeometry width="250" height="240" as="geometry" />
        </mxCell>
        <mxCell id="Oyk-dhyPcfcTaLBgQnEJ-87" value="" style="shape=partialRectangle;collapsible=0;dropTarget=0;pointerEvents=0;fillColor=none;points=[[0,0.5],[1,0.5]];portConstraint=eastwest;top=0;left=0;right=0;bottom=1;" vertex="1" parent="Oyk-dhyPcfcTaLBgQnEJ-86">
          <mxGeometry y="30" width="250" height="30" as="geometry" />
        </mxCell>
        <mxCell id="Oyk-dhyPcfcTaLBgQnEJ-88" value="PK" style="shape=partialRectangle;overflow=hidden;connectable=0;fillColor=none;top=0;left=0;bottom=0;right=0;fontStyle=1;" vertex="1" parent="Oyk-dhyPcfcTaLBgQnEJ-87">
          <mxGeometry width="50" height="30" as="geometry">
            <mxRectangle width="50" height="30" as="alternateBounds" />
          </mxGeometry>
        </mxCell>
        <mxCell id="Oyk-dhyPcfcTaLBgQnEJ-89" value="id int NOT NULL" style="shape=partialRectangle;overflow=hidden;connectable=0;fillColor=default;top=0;left=0;bottom=0;right=0;align=center;spacingLeft=6;fontStyle=5;gradientColor=none;" vertex="1" parent="Oyk-dhyPcfcTaLBgQnEJ-87">
          <mxGeometry x="50" width="200" height="30" as="geometry">
            <mxRectangle width="200" height="30" as="alternateBounds" />
          </mxGeometry>
        </mxCell>
        <mxCell id="Oyk-dhyPcfcTaLBgQnEJ-90" value="" style="shape=partialRectangle;collapsible=0;dropTarget=0;pointerEvents=0;fillColor=none;points=[[0,0.5],[1,0.5]];portConstraint=eastwest;top=0;left=0;right=0;bottom=0;" vertex="1" parent="Oyk-dhyPcfcTaLBgQnEJ-86">
          <mxGeometry y="60" width="250" height="30" as="geometry" />
        </mxCell>
        <mxCell id="Oyk-dhyPcfcTaLBgQnEJ-91" value="FK" style="shape=partialRectangle;overflow=hidden;connectable=0;fillColor=none;top=0;left=0;bottom=0;right=0;strokeColor=inherit;" vertex="1" parent="Oyk-dhyPcfcTaLBgQnEJ-90">
          <mxGeometry width="50" height="30" as="geometry">
            <mxRectangle width="50" height="30" as="alternateBounds" />
          </mxGeometry>
        </mxCell>
        <mxCell id="Oyk-dhyPcfcTaLBgQnEJ-92" value="" style="shape=partialRectangle;overflow=hidden;connectable=0;fillColor=none;top=0;left=0;bottom=0;right=0;align=left;spacingLeft=6;shadow=0;perimeterSpacing=1;strokeColor=default;strokeWidth=16;" vertex="1" parent="Oyk-dhyPcfcTaLBgQnEJ-90">
          <mxGeometry x="50" width="200" height="30" as="geometry">
            <mxRectangle width="200" height="30" as="alternateBounds" />
          </mxGeometry>
        </mxCell>
        <mxCell id="Oyk-dhyPcfcTaLBgQnEJ-93" value="&lt;b&gt;eszkoz_id &lt;/b&gt;int NOT NULL" style="whiteSpace=wrap;html=1;textShadow=0;labelBorderColor=none;labelBackgroundColor=none;gradientColor=none;fillStyle=hatch;fillColor=none;" vertex="1" parent="Oyk-dhyPcfcTaLBgQnEJ-85">
          <mxGeometry x="50" y="60" width="200" height="30" as="geometry" />
        </mxCell>
        <mxCell id="Oyk-dhyPcfcTaLBgQnEJ-94" value="&lt;b&gt;cpu&amp;amp;gpu_pont &lt;/b&gt;int NOT NULL" style="whiteSpace=wrap;html=1;textShadow=0;labelBorderColor=none;labelBackgroundColor=none;gradientColor=none;fillStyle=hatch;fillColor=none;" vertex="1" parent="Oyk-dhyPcfcTaLBgQnEJ-85">
          <mxGeometry x="50" y="90" width="200" height="30" as="geometry" />
        </mxCell>
        <mxCell id="Oyk-dhyPcfcTaLBgQnEJ-95" value="&lt;b&gt;cpu&amp;amp;gpu_nev &lt;/b&gt;varchar NOT NULL" style="whiteSpace=wrap;html=1;textShadow=0;labelBorderColor=none;labelBackgroundColor=none;gradientColor=none;fillStyle=hatch;fillColor=none;" vertex="1" parent="Oyk-dhyPcfcTaLBgQnEJ-85">
          <mxGeometry x="50" y="120" width="200" height="30" as="geometry" />
        </mxCell>
        <mxCell id="Oyk-dhyPcfcTaLBgQnEJ-96" value="&lt;b&gt;magok_szama &lt;/b&gt;int NOT NULL" style="whiteSpace=wrap;html=1;textShadow=0;labelBorderColor=none;labelBackgroundColor=none;gradientColor=none;fillStyle=hatch;fillColor=none;" vertex="1" parent="Oyk-dhyPcfcTaLBgQnEJ-85">
          <mxGeometry x="50" y="180" width="200" height="30" as="geometry" />
        </mxCell>
        <mxCell id="Oyk-dhyPcfcTaLBgQnEJ-97" value="&lt;b&gt;tarolokapacitas &lt;/b&gt;int NOT NULL" style="whiteSpace=wrap;html=1;textShadow=0;labelBorderColor=none;labelBackgroundColor=none;gradientColor=none;fillStyle=hatch;fillColor=none;" vertex="1" parent="Oyk-dhyPcfcTaLBgQnEJ-85">
          <mxGeometry x="50" y="210" width="200" height="30" as="geometry" />
        </mxCell>
        <mxCell id="Oyk-dhyPcfcTaLBgQnEJ-98" value="&lt;b&gt;memoria &lt;/b&gt;int NOT NULL" style="whiteSpace=wrap;html=1;textShadow=0;labelBorderColor=none;labelBackgroundColor=none;gradientColor=none;fillStyle=hatch;fillColor=none;" vertex="1" parent="Oyk-dhyPcfcTaLBgQnEJ-85">
          <mxGeometry x="50" y="150" width="200" height="30" as="geometry" />
        </mxCell>
        <mxCell id="Oyk-dhyPcfcTaLBgQnEJ-99" value="" style="edgeStyle=entityRelationEdgeStyle;endArrow=ERzeroToMany;startArrow=ERone;endFill=1;startFill=0;entryX=0;entryY=0.5;entryDx=0;entryDy=0;exitX=1;exitY=0.5;exitDx=0;exitDy=0;" edge="1" parent="1" source="C-vyLk0tnHw3VtMMgP7b-24" target="Oyk-dhyPcfcTaLBgQnEJ-90">
          <mxGeometry width="100" height="100" relative="1" as="geometry">
            <mxPoint x="240" y="130" as="sourcePoint" />
            <mxPoint x="460" y="695" as="targetPoint" />
            <Array as="points">
              <mxPoint x="310" y="815" />
              <mxPoint x="360" y="885" />
              <mxPoint x="300" y="855" />
            </Array>
          </mxGeometry>
        </mxCell>
        <mxCell id="Oyk-dhyPcfcTaLBgQnEJ-100" value="" style="group" vertex="1" connectable="0" parent="1">
          <mxGeometry x="40" y="395" width="250" height="240" as="geometry" />
        </mxCell>
        <mxCell id="Oyk-dhyPcfcTaLBgQnEJ-114" value="" style="group" vertex="1" connectable="0" parent="Oyk-dhyPcfcTaLBgQnEJ-100">
          <mxGeometry y="60" width="250" height="180" as="geometry" />
        </mxCell>
        <mxCell id="Oyk-dhyPcfcTaLBgQnEJ-101" value="Operációs rendszer és szoftver" style="shape=table;startSize=30;container=1;collapsible=1;childLayout=tableLayout;fixedRows=1;rowLines=0;fontStyle=1;align=center;resizeLast=1;labelBackgroundColor=#66A8FF;swimlaneFillColor=none;fillColor=#dae8fc;strokeColor=#6c8ebf;" vertex="1" parent="Oyk-dhyPcfcTaLBgQnEJ-114">
          <mxGeometry width="250" height="180" as="geometry" />
        </mxCell>
        <mxCell id="Oyk-dhyPcfcTaLBgQnEJ-102" value="" style="shape=partialRectangle;collapsible=0;dropTarget=0;pointerEvents=0;fillColor=none;points=[[0,0.5],[1,0.5]];portConstraint=eastwest;top=0;left=0;right=0;bottom=1;" vertex="1" parent="Oyk-dhyPcfcTaLBgQnEJ-101">
          <mxGeometry y="30" width="250" height="30" as="geometry" />
        </mxCell>
        <mxCell id="Oyk-dhyPcfcTaLBgQnEJ-103" value="PK" style="shape=partialRectangle;overflow=hidden;connectable=0;fillColor=none;top=0;left=0;bottom=0;right=0;fontStyle=1;" vertex="1" parent="Oyk-dhyPcfcTaLBgQnEJ-102">
          <mxGeometry width="50" height="30" as="geometry">
            <mxRectangle width="50" height="30" as="alternateBounds" />
          </mxGeometry>
        </mxCell>
        <mxCell id="Oyk-dhyPcfcTaLBgQnEJ-104" value="id int NOT NULL" style="shape=partialRectangle;overflow=hidden;connectable=0;fillColor=default;top=0;left=0;bottom=0;right=0;align=center;spacingLeft=6;fontStyle=5;gradientColor=none;" vertex="1" parent="Oyk-dhyPcfcTaLBgQnEJ-102">
          <mxGeometry x="50" width="200" height="30" as="geometry">
            <mxRectangle width="200" height="30" as="alternateBounds" />
          </mxGeometry>
        </mxCell>
        <mxCell id="Oyk-dhyPcfcTaLBgQnEJ-105" value="" style="shape=partialRectangle;collapsible=0;dropTarget=0;pointerEvents=0;fillColor=none;points=[[0,0.5],[1,0.5]];portConstraint=eastwest;top=0;left=0;right=0;bottom=0;" vertex="1" parent="Oyk-dhyPcfcTaLBgQnEJ-101">
          <mxGeometry y="60" width="250" height="30" as="geometry" />
        </mxCell>
        <mxCell id="Oyk-dhyPcfcTaLBgQnEJ-106" value="FK" style="shape=partialRectangle;overflow=hidden;connectable=0;fillColor=none;top=0;left=0;bottom=0;right=0;strokeColor=inherit;" vertex="1" parent="Oyk-dhyPcfcTaLBgQnEJ-105">
          <mxGeometry width="50" height="30" as="geometry">
            <mxRectangle width="50" height="30" as="alternateBounds" />
          </mxGeometry>
        </mxCell>
        <mxCell id="Oyk-dhyPcfcTaLBgQnEJ-107" value="" style="shape=partialRectangle;overflow=hidden;connectable=0;fillColor=none;top=0;left=0;bottom=0;right=0;align=left;spacingLeft=6;shadow=0;perimeterSpacing=1;strokeColor=default;strokeWidth=16;" vertex="1" parent="Oyk-dhyPcfcTaLBgQnEJ-105">
          <mxGeometry x="50" width="200" height="30" as="geometry">
            <mxRectangle width="200" height="30" as="alternateBounds" />
          </mxGeometry>
        </mxCell>
        <mxCell id="Oyk-dhyPcfcTaLBgQnEJ-108" value="&lt;b&gt;eszkoz_id &lt;/b&gt;int NOT NULL" style="whiteSpace=wrap;html=1;textShadow=0;labelBorderColor=none;labelBackgroundColor=none;gradientColor=none;fillStyle=hatch;fillColor=none;" vertex="1" parent="Oyk-dhyPcfcTaLBgQnEJ-114">
          <mxGeometry x="50" y="60" width="200" height="30" as="geometry" />
        </mxCell>
        <mxCell id="Oyk-dhyPcfcTaLBgQnEJ-109" value="&lt;b&gt;OS &lt;/b&gt;varchar NOT NULL" style="whiteSpace=wrap;html=1;textShadow=0;labelBorderColor=none;labelBackgroundColor=none;gradientColor=none;fillStyle=hatch;fillColor=none;" vertex="1" parent="Oyk-dhyPcfcTaLBgQnEJ-114">
          <mxGeometry x="50" y="90" width="200" height="30" as="geometry" />
        </mxCell>
        <mxCell id="Oyk-dhyPcfcTaLBgQnEJ-110" value="&lt;b&gt;verzio &lt;/b&gt;decimal(10,2) NOT NULL" style="whiteSpace=wrap;html=1;textShadow=0;labelBorderColor=none;labelBackgroundColor=none;gradientColor=none;fillStyle=hatch;fillColor=none;" vertex="1" parent="Oyk-dhyPcfcTaLBgQnEJ-114">
          <mxGeometry x="50" y="120" width="200" height="30" as="geometry" />
        </mxCell>
        <mxCell id="Oyk-dhyPcfcTaLBgQnEJ-113" value="&lt;b&gt;UI &lt;/b&gt;varchar" style="whiteSpace=wrap;html=1;textShadow=0;labelBorderColor=none;labelBackgroundColor=none;gradientColor=none;fillStyle=hatch;fillColor=none;" vertex="1" parent="Oyk-dhyPcfcTaLBgQnEJ-114">
          <mxGeometry x="50" y="150" width="200" height="30" as="geometry" />
        </mxCell>
        <mxCell id="Oyk-dhyPcfcTaLBgQnEJ-117" style="edgeStyle=none;curved=1;rounded=0;orthogonalLoop=1;jettySize=auto;html=1;exitX=0;exitY=0.5;exitDx=0;exitDy=0;fontSize=12;startSize=8;endSize=8;" edge="1" parent="Oyk-dhyPcfcTaLBgQnEJ-114" source="Oyk-dhyPcfcTaLBgQnEJ-105">
          <mxGeometry relative="1" as="geometry">
            <mxPoint x="-10" y="74.88235294117658" as="targetPoint" />
          </mxGeometry>
        </mxCell>
        <mxCell id="Oyk-dhyPcfcTaLBgQnEJ-115" value="" style="edgeStyle=entityRelationEdgeStyle;endArrow=ERzeroToMany;startArrow=ERone;endFill=1;startFill=0;exitX=1;exitY=0.5;exitDx=0;exitDy=0;" edge="1" parent="1" source="C-vyLk0tnHw3VtMMgP7b-24">
          <mxGeometry width="100" height="100" relative="1" as="geometry">
            <mxPoint x="250" y="70" as="sourcePoint" />
            <mxPoint x="40" y="530" as="targetPoint" />
            <Array as="points">
              <mxPoint x="-60" y="640" />
              <mxPoint x="-10" y="710" />
              <mxPoint x="-70" y="680" />
              <mxPoint x="-20" y="380" />
            </Array>
          </mxGeometry>
        </mxCell>
        <mxCell id="Oyk-dhyPcfcTaLBgQnEJ-118" value="" style="group" vertex="1" connectable="0" parent="1">
          <mxGeometry x="-790" y="50" width="250" height="240" as="geometry" />
        </mxCell>
        <mxCell id="Oyk-dhyPcfcTaLBgQnEJ-119" value="Felhasználók" style="shape=table;startSize=30;container=1;collapsible=1;childLayout=tableLayout;fixedRows=1;rowLines=0;fontStyle=1;align=center;resizeLast=1;labelBackgroundColor=#66A8FF;swimlaneFillColor=none;fillColor=#fff2cc;strokeColor=#d6b656;" vertex="1" parent="Oyk-dhyPcfcTaLBgQnEJ-118">
          <mxGeometry width="250" height="210" as="geometry" />
        </mxCell>
        <mxCell id="Oyk-dhyPcfcTaLBgQnEJ-120" value="" style="shape=partialRectangle;collapsible=0;dropTarget=0;pointerEvents=0;fillColor=none;points=[[0,0.5],[1,0.5]];portConstraint=eastwest;top=0;left=0;right=0;bottom=1;" vertex="1" parent="Oyk-dhyPcfcTaLBgQnEJ-119">
          <mxGeometry y="30" width="250" height="30" as="geometry" />
        </mxCell>
        <mxCell id="Oyk-dhyPcfcTaLBgQnEJ-121" value="PK" style="shape=partialRectangle;overflow=hidden;connectable=0;fillColor=none;top=0;left=0;bottom=0;right=0;fontStyle=1;" vertex="1" parent="Oyk-dhyPcfcTaLBgQnEJ-120">
          <mxGeometry width="50" height="30" as="geometry">
            <mxRectangle width="50" height="30" as="alternateBounds" />
          </mxGeometry>
        </mxCell>
        <mxCell id="Oyk-dhyPcfcTaLBgQnEJ-122" value="id int NOT NULL" style="shape=partialRectangle;overflow=hidden;connectable=0;fillColor=default;top=0;left=0;bottom=0;right=0;align=center;spacingLeft=6;fontStyle=5;gradientColor=none;" vertex="1" parent="Oyk-dhyPcfcTaLBgQnEJ-120">
          <mxGeometry x="50" width="200" height="30" as="geometry">
            <mxRectangle width="200" height="30" as="alternateBounds" />
          </mxGeometry>
        </mxCell>
        <mxCell id="Oyk-dhyPcfcTaLBgQnEJ-123" value="" style="shape=partialRectangle;collapsible=0;dropTarget=0;pointerEvents=0;fillColor=none;points=[[0,0.5],[1,0.5]];portConstraint=eastwest;top=0;left=0;right=0;bottom=0;" vertex="1" parent="Oyk-dhyPcfcTaLBgQnEJ-119">
          <mxGeometry y="60" width="250" height="30" as="geometry" />
        </mxCell>
        <mxCell id="Oyk-dhyPcfcTaLBgQnEJ-124" value="" style="shape=partialRectangle;overflow=hidden;connectable=0;fillColor=none;top=0;left=0;bottom=0;right=0;strokeColor=inherit;" vertex="1" parent="Oyk-dhyPcfcTaLBgQnEJ-123">
          <mxGeometry width="50" height="30" as="geometry">
            <mxRectangle width="50" height="30" as="alternateBounds" />
          </mxGeometry>
        </mxCell>
        <mxCell id="Oyk-dhyPcfcTaLBgQnEJ-125" value="" style="shape=partialRectangle;overflow=hidden;connectable=0;fillColor=none;top=0;left=0;bottom=0;right=0;align=left;spacingLeft=6;shadow=0;perimeterSpacing=1;strokeColor=default;strokeWidth=16;" vertex="1" parent="Oyk-dhyPcfcTaLBgQnEJ-123">
          <mxGeometry x="50" width="200" height="30" as="geometry">
            <mxRectangle width="200" height="30" as="alternateBounds" />
          </mxGeometry>
        </mxCell>
        <mxCell id="Oyk-dhyPcfcTaLBgQnEJ-126" value="&lt;b&gt;felhasznalonev&lt;/b&gt; varchar NOT NULL" style="whiteSpace=wrap;html=1;textShadow=0;labelBorderColor=none;labelBackgroundColor=none;gradientColor=none;fillStyle=hatch;fillColor=none;" vertex="1" parent="Oyk-dhyPcfcTaLBgQnEJ-118">
          <mxGeometry x="50" y="60" width="200" height="30" as="geometry" />
        </mxCell>
        <mxCell id="Oyk-dhyPcfcTaLBgQnEJ-127" value="&lt;b&gt;email &lt;/b&gt;varchar NOT NULL" style="whiteSpace=wrap;html=1;textShadow=0;labelBorderColor=none;labelBackgroundColor=none;gradientColor=none;fillStyle=hatch;fillColor=none;" vertex="1" parent="Oyk-dhyPcfcTaLBgQnEJ-118">
          <mxGeometry x="50" y="90" width="200" height="30" as="geometry" />
        </mxCell>
        <mxCell id="Oyk-dhyPcfcTaLBgQnEJ-128" value="&lt;b&gt;jelszo &lt;/b&gt;varchar NOT NULL" style="whiteSpace=wrap;html=1;textShadow=0;labelBorderColor=none;labelBackgroundColor=none;gradientColor=none;fillStyle=hatch;fillColor=none;" vertex="1" parent="Oyk-dhyPcfcTaLBgQnEJ-118">
          <mxGeometry x="50" y="120" width="200" height="30" as="geometry" />
        </mxCell>
        <mxCell id="Oyk-dhyPcfcTaLBgQnEJ-129" value="&lt;b&gt;kep_url &lt;/b&gt;varchar" style="whiteSpace=wrap;html=1;textShadow=0;labelBorderColor=none;labelBackgroundColor=none;gradientColor=none;fillStyle=hatch;fillColor=none;" vertex="1" parent="Oyk-dhyPcfcTaLBgQnEJ-118">
          <mxGeometry x="50" y="150" width="200" height="30" as="geometry" />
        </mxCell>
        <mxCell id="Oyk-dhyPcfcTaLBgQnEJ-130" value="&lt;b&gt;regisztralt &lt;/b&gt;timestamp default" style="whiteSpace=wrap;html=1;textShadow=0;labelBorderColor=none;labelBackgroundColor=none;gradientColor=none;fillStyle=hatch;fillColor=none;" vertex="1" parent="Oyk-dhyPcfcTaLBgQnEJ-118">
          <mxGeometry x="50" y="180" width="200" height="30" as="geometry" />
        </mxCell>
        <mxCell id="Oyk-dhyPcfcTaLBgQnEJ-132" value="" style="group" vertex="1" connectable="0" parent="1">
          <mxGeometry x="-330" y="180" width="250" height="240" as="geometry" />
        </mxCell>
        <mxCell id="Oyk-dhyPcfcTaLBgQnEJ-145" value="FK2" style="shape=partialRectangle;overflow=hidden;connectable=0;fillColor=none;top=0;left=0;bottom=0;right=0;strokeColor=inherit;" vertex="1" parent="Oyk-dhyPcfcTaLBgQnEJ-132">
          <mxGeometry y="90" width="50" height="30" as="geometry">
            <mxRectangle width="50" height="30" as="alternateBounds" />
          </mxGeometry>
        </mxCell>
        <mxCell id="Oyk-dhyPcfcTaLBgQnEJ-148" value="" style="group" vertex="1" connectable="0" parent="Oyk-dhyPcfcTaLBgQnEJ-132">
          <mxGeometry width="250" height="210" as="geometry" />
        </mxCell>
        <mxCell id="Oyk-dhyPcfcTaLBgQnEJ-133" value="Értékelések" style="shape=table;startSize=30;container=1;collapsible=1;childLayout=tableLayout;fixedRows=1;rowLines=0;fontStyle=1;align=center;resizeLast=1;labelBackgroundColor=#66A8FF;swimlaneFillColor=none;fillColor=#f8cecc;strokeColor=#b85450;" vertex="1" parent="Oyk-dhyPcfcTaLBgQnEJ-148">
          <mxGeometry width="250" height="210" as="geometry" />
        </mxCell>
        <mxCell id="Oyk-dhyPcfcTaLBgQnEJ-134" value="" style="shape=partialRectangle;collapsible=0;dropTarget=0;pointerEvents=0;fillColor=none;points=[[0,0.5],[1,0.5]];portConstraint=eastwest;top=0;left=0;right=0;bottom=1;" vertex="1" parent="Oyk-dhyPcfcTaLBgQnEJ-133">
          <mxGeometry y="30" width="250" height="30" as="geometry" />
        </mxCell>
        <mxCell id="Oyk-dhyPcfcTaLBgQnEJ-135" value="PK" style="shape=partialRectangle;overflow=hidden;connectable=0;fillColor=none;top=0;left=0;bottom=0;right=0;fontStyle=1;" vertex="1" parent="Oyk-dhyPcfcTaLBgQnEJ-134">
          <mxGeometry width="50" height="30" as="geometry">
            <mxRectangle width="50" height="30" as="alternateBounds" />
          </mxGeometry>
        </mxCell>
        <mxCell id="Oyk-dhyPcfcTaLBgQnEJ-136" value="id int NOT NULL" style="shape=partialRectangle;overflow=hidden;connectable=0;fillColor=default;top=0;left=0;bottom=0;right=0;align=center;spacingLeft=6;fontStyle=5;gradientColor=none;" vertex="1" parent="Oyk-dhyPcfcTaLBgQnEJ-134">
          <mxGeometry x="50" width="200" height="30" as="geometry">
            <mxRectangle width="200" height="30" as="alternateBounds" />
          </mxGeometry>
        </mxCell>
        <mxCell id="Oyk-dhyPcfcTaLBgQnEJ-137" value="" style="shape=partialRectangle;collapsible=0;dropTarget=0;pointerEvents=0;fillColor=none;points=[[0,0.5],[1,0.5]];portConstraint=eastwest;top=0;left=0;right=0;bottom=0;" vertex="1" parent="Oyk-dhyPcfcTaLBgQnEJ-133">
          <mxGeometry y="60" width="250" height="30" as="geometry" />
        </mxCell>
        <mxCell id="Oyk-dhyPcfcTaLBgQnEJ-138" value="FK1" style="shape=partialRectangle;overflow=hidden;connectable=0;fillColor=none;top=0;left=0;bottom=0;right=0;strokeColor=inherit;" vertex="1" parent="Oyk-dhyPcfcTaLBgQnEJ-137">
          <mxGeometry width="50" height="30" as="geometry">
            <mxRectangle width="50" height="30" as="alternateBounds" />
          </mxGeometry>
        </mxCell>
        <mxCell id="Oyk-dhyPcfcTaLBgQnEJ-139" value="" style="shape=partialRectangle;overflow=hidden;connectable=0;fillColor=none;top=0;left=0;bottom=0;right=0;align=left;spacingLeft=6;shadow=0;perimeterSpacing=1;strokeColor=default;strokeWidth=16;" vertex="1" parent="Oyk-dhyPcfcTaLBgQnEJ-137">
          <mxGeometry x="50" width="200" height="30" as="geometry">
            <mxRectangle width="200" height="30" as="alternateBounds" />
          </mxGeometry>
        </mxCell>
        <mxCell id="Oyk-dhyPcfcTaLBgQnEJ-140" value="&lt;b&gt;eszkoz_id &lt;/b&gt;int NOT NULL" style="whiteSpace=wrap;html=1;textShadow=0;labelBorderColor=none;labelBackgroundColor=none;gradientColor=none;fillStyle=hatch;fillColor=none;" vertex="1" parent="Oyk-dhyPcfcTaLBgQnEJ-148">
          <mxGeometry x="50" y="60" width="200" height="30" as="geometry" />
        </mxCell>
        <mxCell id="Oyk-dhyPcfcTaLBgQnEJ-141" value="&lt;b&gt;felhasznalo_id &lt;/b&gt;int NOT NULL" style="whiteSpace=wrap;html=1;textShadow=0;labelBorderColor=none;labelBackgroundColor=none;gradientColor=none;fillStyle=hatch;fillColor=none;" vertex="1" parent="Oyk-dhyPcfcTaLBgQnEJ-148">
          <mxGeometry x="50" y="90" width="200" height="30" as="geometry" />
        </mxCell>
        <mxCell id="Oyk-dhyPcfcTaLBgQnEJ-142" value="&lt;b&gt;ertekeles &lt;/b&gt;decimal(2,1) NOT NULL" style="whiteSpace=wrap;html=1;textShadow=0;labelBorderColor=none;labelBackgroundColor=none;gradientColor=none;fillStyle=hatch;fillColor=none;" vertex="1" parent="Oyk-dhyPcfcTaLBgQnEJ-148">
          <mxGeometry x="50" y="120" width="200" height="30" as="geometry" />
        </mxCell>
        <mxCell id="Oyk-dhyPcfcTaLBgQnEJ-143" value="&lt;b&gt;ertekelo_szoveg &lt;/b&gt;text" style="whiteSpace=wrap;html=1;textShadow=0;labelBorderColor=none;labelBackgroundColor=none;gradientColor=none;fillStyle=hatch;fillColor=none;" vertex="1" parent="Oyk-dhyPcfcTaLBgQnEJ-148">
          <mxGeometry x="50" y="150" width="200" height="30" as="geometry" />
        </mxCell>
        <mxCell id="Oyk-dhyPcfcTaLBgQnEJ-144" value="&lt;b&gt;letrehozva &lt;/b&gt;timestamp default" style="whiteSpace=wrap;html=1;textShadow=0;labelBorderColor=none;labelBackgroundColor=none;gradientColor=none;fillStyle=hatch;fillColor=none;" vertex="1" parent="Oyk-dhyPcfcTaLBgQnEJ-148">
          <mxGeometry x="50" y="180" width="200" height="30" as="geometry" />
        </mxCell>
        <mxCell id="Oyk-dhyPcfcTaLBgQnEJ-147" value="" style="endArrow=ERzeroToMany;startArrow=ERone;endFill=1;startFill=0;exitX=0;exitY=0.5;exitDx=0;exitDy=0;entryX=1;entryY=0.5;entryDx=0;entryDy=0;" edge="1" parent="1" source="C-vyLk0tnHw3VtMMgP7b-24" target="Oyk-dhyPcfcTaLBgQnEJ-140">
          <mxGeometry width="100" height="100" relative="1" as="geometry">
            <mxPoint x="-50" y="120" as="sourcePoint" />
            <mxPoint x="-190" y="100" as="targetPoint" />
          </mxGeometry>
        </mxCell>
        <mxCell id="Oyk-dhyPcfcTaLBgQnEJ-149" value="" style="endArrow=ERzeroToMany;startArrow=ERone;endFill=1;startFill=0;exitX=1;exitY=0.5;exitDx=0;exitDy=0;entryX=0;entryY=0.5;entryDx=0;entryDy=0;" edge="1" parent="1" source="Oyk-dhyPcfcTaLBgQnEJ-120" target="Oyk-dhyPcfcTaLBgQnEJ-133">
          <mxGeometry width="100" height="100" relative="1" as="geometry">
            <mxPoint x="-345" y="110" as="sourcePoint" />
            <mxPoint x="-425" y="300" as="targetPoint" />
          </mxGeometry>
        </mxCell>
        <mxCell id="Oyk-dhyPcfcTaLBgQnEJ-150" value="" style="group" vertex="1" connectable="0" parent="1">
          <mxGeometry x="-370" y="440" width="250" height="240" as="geometry" />
        </mxCell>
        <mxCell id="Oyk-dhyPcfcTaLBgQnEJ-151" value="Felhasználó_előzmény" style="shape=table;startSize=30;container=1;collapsible=1;childLayout=tableLayout;fixedRows=1;rowLines=0;fontStyle=1;align=center;resizeLast=1;labelBackgroundColor=#66A8FF;swimlaneFillColor=none;fillColor=#ffe6cc;strokeColor=#d79b00;" vertex="1" parent="Oyk-dhyPcfcTaLBgQnEJ-150">
          <mxGeometry width="250" height="150" as="geometry" />
        </mxCell>
        <mxCell id="Oyk-dhyPcfcTaLBgQnEJ-152" value="" style="shape=partialRectangle;collapsible=0;dropTarget=0;pointerEvents=0;fillColor=none;points=[[0,0.5],[1,0.5]];portConstraint=eastwest;top=0;left=0;right=0;bottom=1;" vertex="1" parent="Oyk-dhyPcfcTaLBgQnEJ-151">
          <mxGeometry y="30" width="250" height="30" as="geometry" />
        </mxCell>
        <mxCell id="Oyk-dhyPcfcTaLBgQnEJ-153" value="PK" style="shape=partialRectangle;overflow=hidden;connectable=0;fillColor=none;top=0;left=0;bottom=0;right=0;fontStyle=1;" vertex="1" parent="Oyk-dhyPcfcTaLBgQnEJ-152">
          <mxGeometry width="50" height="30" as="geometry">
            <mxRectangle width="50" height="30" as="alternateBounds" />
          </mxGeometry>
        </mxCell>
        <mxCell id="Oyk-dhyPcfcTaLBgQnEJ-154" value="id int NOT NULL" style="shape=partialRectangle;overflow=hidden;connectable=0;fillColor=default;top=0;left=0;bottom=0;right=0;align=center;spacingLeft=6;fontStyle=5;gradientColor=none;" vertex="1" parent="Oyk-dhyPcfcTaLBgQnEJ-152">
          <mxGeometry x="50" width="200" height="30" as="geometry">
            <mxRectangle width="200" height="30" as="alternateBounds" />
          </mxGeometry>
        </mxCell>
        <mxCell id="Oyk-dhyPcfcTaLBgQnEJ-155" value="" style="shape=partialRectangle;collapsible=0;dropTarget=0;pointerEvents=0;fillColor=none;points=[[0,0.5],[1,0.5]];portConstraint=eastwest;top=0;left=0;right=0;bottom=0;" vertex="1" parent="Oyk-dhyPcfcTaLBgQnEJ-151">
          <mxGeometry y="60" width="250" height="30" as="geometry" />
        </mxCell>
        <mxCell id="Oyk-dhyPcfcTaLBgQnEJ-156" value="FK" style="shape=partialRectangle;overflow=hidden;connectable=0;fillColor=none;top=0;left=0;bottom=0;right=0;strokeColor=inherit;" vertex="1" parent="Oyk-dhyPcfcTaLBgQnEJ-155">
          <mxGeometry width="50" height="30" as="geometry">
            <mxRectangle width="50" height="30" as="alternateBounds" />
          </mxGeometry>
        </mxCell>
        <mxCell id="Oyk-dhyPcfcTaLBgQnEJ-157" value="" style="shape=partialRectangle;overflow=hidden;connectable=0;fillColor=none;top=0;left=0;bottom=0;right=0;align=left;spacingLeft=6;shadow=0;perimeterSpacing=1;strokeColor=default;strokeWidth=16;" vertex="1" parent="Oyk-dhyPcfcTaLBgQnEJ-155">
          <mxGeometry x="50" width="200" height="30" as="geometry">
            <mxRectangle width="200" height="30" as="alternateBounds" />
          </mxGeometry>
        </mxCell>
        <mxCell id="Oyk-dhyPcfcTaLBgQnEJ-158" value="&lt;b&gt;felhasznalo_id&amp;nbsp;&lt;/b&gt;int NOT NULL" style="whiteSpace=wrap;html=1;textShadow=0;labelBorderColor=none;labelBackgroundColor=none;gradientColor=none;fillStyle=hatch;fillColor=none;" vertex="1" parent="Oyk-dhyPcfcTaLBgQnEJ-150">
          <mxGeometry x="50" y="60" width="200" height="30" as="geometry" />
        </mxCell>
        <mxCell id="Oyk-dhyPcfcTaLBgQnEJ-159" value="&lt;b&gt;keresett_szoveg &lt;/b&gt;text" style="whiteSpace=wrap;html=1;textShadow=0;labelBorderColor=none;labelBackgroundColor=none;gradientColor=none;fillStyle=hatch;fillColor=none;" vertex="1" parent="Oyk-dhyPcfcTaLBgQnEJ-150">
          <mxGeometry x="50" y="90" width="200" height="30" as="geometry" />
        </mxCell>
        <mxCell id="Oyk-dhyPcfcTaLBgQnEJ-160" value="&lt;b&gt;keresett_mikor &lt;/b&gt;timestamp default" style="whiteSpace=wrap;html=1;textShadow=0;labelBorderColor=none;labelBackgroundColor=none;gradientColor=none;fillStyle=hatch;fillColor=none;" vertex="1" parent="Oyk-dhyPcfcTaLBgQnEJ-150">
          <mxGeometry x="50" y="120" width="200" height="30" as="geometry" />
        </mxCell>
        <mxCell id="Oyk-dhyPcfcTaLBgQnEJ-163" value="" style="endArrow=ERzeroToMany;startArrow=ERone;endFill=1;startFill=0;exitX=1;exitY=0.5;exitDx=0;exitDy=0;entryX=0;entryY=0.5;entryDx=0;entryDy=0;" edge="1" parent="1" source="Oyk-dhyPcfcTaLBgQnEJ-120" target="Oyk-dhyPcfcTaLBgQnEJ-155">
          <mxGeometry width="100" height="100" relative="1" as="geometry">
            <mxPoint x="-600" y="420" as="sourcePoint" />
            <mxPoint x="-390" y="610" as="targetPoint" />
          </mxGeometry>
        </mxCell>
      </root>
    </mxGraphModel>
  </diagram>
</mxfile>
